<svg width="32" height="32" viewBox="0 0 114 130" fill="none" xmlns="http://www.w3.org/2000/svg">
  <g style="fill-rule:evenodd;clip-rule:evenodd;stroke-linecap:round;stroke-linejoin:round;stroke-miterlimit:1.5;">
    <path d="M56.357,44.937c-14.277,-2.3 -41.098,5.704 -42.48,19.68c0,0 -5.169,37.688 -4.32,45.6c0.749,6.979 8.18,13.938 22.56,17.52" style="fill:none;stroke:#8B311E;stroke-width:8px;"/>
    <path d="M49.877,38.697l4.32,-27.84c0,0 1.788,-13.095 4.08,-7.44c1.847,4.557 4.32,37.2 4.32,37.2c0.393,4.575 5.09,4.135 15.6,6.96c16.367,4.399 24.342,11.349 24.96,31.68c0.618,20.331 2.861,33.066 -3.84,38.16c-6.701,5.094 -34.028,11.302 -59.04,6.24c-0.323,-0.323 -23.413,-3.999 -24.48,-17.76c-0.085,-2.915 4.066,-20.753 4.32,-21.6c0.692,-1.243 2.1,-11.259 8.16,-13.2c4.654,-1.49 9.844,-2.516 10.56,-2.4c0,0 9.408,-2.437 8.64,4.08c-0.768,6.517 -1.92,10.8 -1.92,10.8c0,0 -1.262,8.022 3.12,9.12c4.382,1.098 17.28,0.96 17.28,0.96c0,0 5.127,0.26 4.32,-7.68c-0.609,-5.998 -2.4,-13.2 -2.4,-13.2c0,0 -1.079,-3.321 1.92,-3.84c4.161,-0.72 9.99,1.509 14.88,3.6c5.073,2.169 8.496,3.605 9.6,12.48c1.107,8.892 1.2,15.84 1.2,15.84c0,0 0.953,7.86 -5.52,11.28c-9.327,4.928 -16.32,4.56 -16.32,4.56c0,0 -3.999,1.23 -3.84,-6.96c0.117,-6.051 -0.72,-6.24 -0.72,-6.24c0,0 0.354,-1.838 -7.44,-2.64c-7.794,-0.802 -10.8,-0.48 -10.8,-0.48c0,0 -6.508,-1.05 -6.72,3.6c-0.212,4.65 -0.72,6 -0.72,6c0,0 -0.402,4.138 -5.04,4.56c-2.859,0.26 -17.319,-3.106 -16.56,-12" style="fill:none;stroke:#8B311E;stroke-width:8px;"/>
    <path d="M103.877,81.897c0,0 17.095,-6.581 1.44,17.04" style="fill:none;stroke:#8B311E;stroke-width:8px;"/>
    <path d="M10.037,80.457c0,0 -17.082,-6.581 -1.439,17.04" style="fill:none;stroke:#8B311E;stroke-width:8px;"/>
  </g>
</svg>
